<svg viewBox="0 0 63.71 43.66" xmlns="http://www.w3.org/2000/svg"><g data-name="Capa 1"><path d="m63.51 39.92a3.75 3.75 0 0 1 -3.74 3.74h-55.77a3.75 3.75 0 0 1 -3.8-3.74v-36.18a3.75 3.75 0 0 1 3.8-3.74h55.77a3.75 3.75 0 0 1 3.74 3.74z" fill="#e7e7e2"/><path d="m2.86 39.92v-36.18a3.75 3.75 0 0 1 3.75-3.74h-2.67a3.75 3.75 0 0 0 -3.74 3.74v36.18a3.75 3.75 0 0 0 3.8 3.74h2.61a3.75 3.75 0 0 1 -3.75-3.74z" fill="#202020" opacity=".15" isolation="isolate"/><circle cx="14.41" cy="13.68" fill="#62a6d1" r="7.16"/><path d="m23.34 3.73a7.52 7.52 0 0 0 1.51 4.17 16.68 16.68 0 0 0 -10.57 9.77c-1.2-1.84-2.28-3.8-5.28-3.91 1-.76 2.05-1.44 2.4-2.84a6.42 6.42 0 0 1 2.6 3.47 28.22 28.22 0 0 1 9.34-10.66z" fill="#10518c"/><g fill="#c33733"><path d="m43.09 5.52h13.99v2.8h-13.99z"/><path d="m43.09 15.6h13.99v2.8h-13.99z"/><path d="m43.09 10.56h13.99v2.8h-13.99z"/></g><path d="m0 25.99h63.71v8.96h-63.71z" fill="#34475c"/></g></svg>